<svg version="1.1" id="Layer_1" xmlns="http://www.w3.org/2000/svg" xmlns:xlink="http://www.w3.org/1999/xlink" x="0px" y="0px"
	 width="100%" viewBox="0 0 752 720" enable-background="new 0 0 752 720" xml:space="preserve">
<path fill="#000000" opacity="1.000000" stroke="none" 
	d="
M380.497101,659.640747 
	C262.015717,612.304199 206.209869,453.190247 300.881561,335.787537 
	C296.261627,334.893768 291.841614,335.316284 287.467926,335.490143 
	C265.339661,336.369965 243.215759,337.359070 221.088882,338.274689 
	C204.286316,338.969940 187.484787,339.731384 170.675369,340.191315 
	C166.691269,340.300385 165.726761,342.909332 164.465576,345.601196 
	C150.756226,374.862122 137.060074,404.129181 123.358727,433.393860 
	C117.920586,445.009155 112.502632,456.634094 107.010605,468.223877 
	C106.236336,469.857788 105.272873,471.478821 104.073776,472.815948 
	C102.425301,474.654114 100.304329,475.495636 97.764793,474.494934 
	C95.187416,473.479279 93.758057,471.670624 93.500977,468.884125 
	C93.273788,466.421692 94.313820,464.351349 95.308311,462.232117 
	C138.899139,369.340118 182.489349,276.447815 226.060699,183.546661 
	C240.913620,151.877853 255.727829,120.190865 270.525543,88.496216 
	C272.059021,85.211700 273.645447,82.007629 277.897888,82.075478 
	C282.097809,82.142494 283.667694,85.319557 285.211304,88.614922 
	C314.249634,150.608780 343.381470,212.558945 372.294708,274.611023 
	C374.453766,279.244690 376.433838,279.741699 380.952179,277.863922 
	C404.927460,267.900299 430.092072,263.027588 455.955444,263.221710 
	C511.052917,263.635223 558.775024,282.683563 598.273010,321.504791 
	C600.204956,323.403595 602.129761,325.384064 601.978394,328.294403 
	C601.850708,330.749084 600.628845,332.844269 598.267273,333.814362 
	C595.151733,335.094147 592.475342,334.180573 590.113525,331.813751 
	C579.475769,321.153198 567.770447,311.829590 554.876709,304.030151 
	C529.374268,288.603699 501.834625,279.632233 472.067810,277.080566 
	C442.445801,274.541321 414.042053,279.093048 386.413574,289.752136 
	C381.932922,291.480743 380.980957,293.144684 383.113770,297.660187 
	C404.170227,342.240479 425.029602,386.913849 445.932465,431.566650 
	C449.957367,440.164673 454.115662,448.708038 457.840149,457.435455 
	C459.528625,461.391937 461.820374,462.741058 466.135559,462.731628 
	C527.123840,462.598663 588.112549,462.645386 649.101196,462.654083 
	C658.600037,462.655457 659.509094,463.414276 659.320496,472.901764 
	C658.311096,523.693054 641.107117,568.309387 607.463379,606.344666 
	C574.230835,643.915283 532.314636,665.798462 482.820374,672.826294 
	C472.357452,674.311951 461.513672,672.893616 450.871918,673.386719 
	C426.391449,674.521179 403.352356,668.626648 380.497101,659.640747 
M448.879364,661.590515 
	C460.728058,662.104431 472.561157,661.426208 484.203491,659.460022 
	C540.054993,650.027710 583.862732,621.661743 615.145081,574.470520 
	C633.331116,547.036011 643.589539,516.697449 645.862427,483.749908 
	C646.442383,475.342468 646.560547,475.342590 637.971558,475.341309 
	C578.658325,475.332336 519.344788,475.254913 460.032135,475.432251 
	C454.119171,475.449921 451.017029,473.267670 448.586914,468.035461 
	C428.663483,425.138306 408.424835,382.387360 388.563446,339.461792 
	C386.053894,334.038055 383.290833,331.683929 377.024017,332.111206 
	C360.753418,333.220551 344.433472,333.961151 328.129181,334.042572 
	C321.900665,334.073730 317.892242,336.308472 314.136261,340.783844 
	C272.752991,390.093323 256.867493,446.587952 270.702576,509.426910 
	C285.669983,577.408752 327.083649,624.275024 391.977509,649.979675 
	C409.928528,657.090149 428.776123,660.170959 448.879364,661.590515 
M325.984100,206.424179 
	C310.104004,172.588684 294.223907,138.753204 277.800629,103.760323 
	C242.268723,179.603760 207.346695,254.145447 171.865540,329.880615 
	C241.527496,326.358093 309.797424,322.905975 378.906311,319.411438 
	C361.050659,281.273621 343.685364,244.183151 325.984100,206.424179 
z"/>
</svg>